<?xml version="1.0" standalone="no"?><svg xmlns="http://www.w3.org/2000/svg" viewBox="0 0 1440 320"><path fill="#a02334" fill-opacity="0.99" d="M0,224L18.5,202.7C36.9,181,74,139,111,138.7C147.7,139,185,181,222,165.3C258.5,149,295,75,332,48C369.2,21,406,43,443,85.3C480,128,517,192,554,229.3C590.8,267,628,277,665,245.3C701.5,213,738,139,775,122.7C812.3,107,849,149,886,144C923.1,139,960,85,997,90.7C1033.8,96,1071,160,1108,165.3C1144.6,171,1182,117,1218,106.7C1255.4,96,1292,128,1329,165.3C1366.2,203,1403,245,1422,266.7L1440,288L1440,320L1421.5,320C1403.1,320,1366,320,1329,320C1292.3,320,1255,320,1218,320C1181.5,320,1145,320,1108,320C1070.8,320,1034,320,997,320C960,320,923,320,886,320C849.2,320,812,320,775,320C738.5,320,702,320,665,320C627.7,320,591,320,554,320C516.9,320,480,320,443,320C406.2,320,369,320,332,320C295.4,320,258,320,222,320C184.6,320,148,320,111,320C73.8,320,37,320,18,320L0,320Z"></path></svg>