<?xml version="1.0" standalone="no"?><svg xmlns="http://www.w3.org/2000/svg" viewBox="0 0 1440 320"><path fill="#a02334" fill-opacity="0.99" d="M0,0L30,16C60,32,120,64,180,106.7C240,149,300,203,360,197.3C420,192,480,128,540,90.7C600,53,660,43,720,58.7C780,75,840,117,900,122.7C960,128,1020,96,1080,112C1140,128,1200,192,1260,197.3C1320,203,1380,149,1410,122.7L1440,96L1440,320L1410,320C1380,320,1320,320,1260,320C1200,320,1140,320,1080,320C1020,320,960,320,900,320C840,320,780,320,720,320C660,320,600,320,540,320C480,320,420,320,360,320C300,320,240,320,180,320C120,320,60,320,30,320L0,320Z"></path></svg>